<svg xmlns="http://www.w3.org/2000/svg" viewBox="0 0 240 220" fill="none">
  <rect width="240" height="220" fill="#faf7f2"/>
  <defs>
    <pattern id="fav-bricks" patternUnits="userSpaceOnUse" width="18" height="14">
      <rect width="18" height="14" fill="#c46a3a"/>
      <line x1="0" y1="0" x2="18" y2="0" stroke="#3d2418" stroke-width="0.8"/>
      <line x1="0" y1="7" x2="18" y2="7" stroke="#3d2418" stroke-width="0.8"/>
      <line x1="0" y1="0" x2="0" y2="7" stroke="#3d2418" stroke-width="0.8"/>
      <line x1="9" y1="7" x2="9" y2="14" stroke="#3d2418" stroke-width="0.8"/>
    </pattern>
    <clipPath id="fav-medallion"><circle cx="150" cy="142" r="33"/></clipPath>
  </defs>
  <line x1="50" y1="28" x2="50" y2="178" stroke="#1c1714" stroke-width="3.5" stroke-linecap="round"/>
  <line x1="50" y1="28" x2="72" y2="28" stroke="#1c1714" stroke-width="3.5" stroke-linecap="round"/>
  <line x1="72" y1="28" x2="72" y2="166" stroke="#1c1714" stroke-width="2" stroke-linecap="round"/>
  <g stroke="#1c1714" stroke-width="1.5" stroke-linecap="round">
    <line x1="72" y1="36" x2="83" y2="36"/>
    <line x1="72" y1="40" x2="77" y2="40"/>
    <line x1="72" y1="44" x2="77" y2="44"/>
    <line x1="72" y1="48" x2="77" y2="48"/>
    <line x1="72" y1="52" x2="83" y2="52"/>
    <line x1="72" y1="56" x2="77" y2="56"/>
    <line x1="72" y1="60" x2="77" y2="60"/>
    <line x1="72" y1="64" x2="77" y2="64"/>
    <line x1="72" y1="68" x2="83" y2="68"/>
    <line x1="72" y1="72" x2="77" y2="72"/>
    <line x1="72" y1="76" x2="77" y2="76"/>
    <line x1="72" y1="80" x2="77" y2="80"/>
    <line x1="72" y1="84" x2="83" y2="84"/>
    <line x1="72" y1="88" x2="77" y2="88"/>
    <line x1="72" y1="92" x2="77" y2="92"/>
    <line x1="72" y1="96" x2="77" y2="96"/>
    <line x1="72" y1="100" x2="83" y2="100"/>
    <line x1="72" y1="104" x2="77" y2="104"/>
    <line x1="72" y1="108" x2="77" y2="108"/>
    <line x1="72" y1="112" x2="77" y2="112"/>
    <line x1="72" y1="116" x2="83" y2="116"/>
    <line x1="72" y1="120" x2="77" y2="120"/>
    <line x1="72" y1="124" x2="77" y2="124"/>
    <line x1="72" y1="128" x2="77" y2="128"/>
    <line x1="72" y1="132" x2="83" y2="132"/>
    <line x1="72" y1="136" x2="77" y2="136"/>
    <line x1="72" y1="140" x2="77" y2="140"/>
    <line x1="72" y1="144" x2="77" y2="144"/>
    <line x1="72" y1="148" x2="83" y2="148"/>
    <line x1="72" y1="152" x2="77" y2="152"/>
    <line x1="72" y1="156" x2="77" y2="156"/>
    <line x1="72" y1="160" x2="77" y2="160"/>
  </g>
  <circle cx="84" cy="28" r="4" fill="none" stroke="#1c1714" stroke-width="2"/>
  <path d="M88.5 25.2 L196 4 L204 14 L93 35 Z" fill="#1c1714"/>
  <line x1="44" y1="178" x2="208" y2="178" stroke="#1c1714" stroke-width="3.5" stroke-linecap="round"/>
  <line x1="208" y1="106" x2="208" y2="178" stroke="#1c1714" stroke-width="3.5" stroke-linecap="round"/>
  <line x1="166" y1="106" x2="208" y2="106" stroke="#1c1714" stroke-width="3" stroke-linecap="round"/>
  <g clip-path="url(#fav-medallion)">
    <rect x="116" y="108" width="70" height="70" fill="url(#fav-bricks)"/>
  </g>
  <circle cx="150" cy="142" r="33" fill="none" stroke="#1c1714" stroke-width="2.4"/>
</svg>
